grf
version=1
nRows=15
nColumns=37
inDegrees=no
endheader
time	ground_force_1_vx	ground_force_1_vy	ground_force_1_vz	ground_force_1_px	ground_force_1_py	ground_force_1_pz	ground_moment_1_mx	ground_moment_1_my	ground_moment_1_mz	ground_force_2_vx	ground_force_2_vy	ground_force_2_vz	ground_force_2_px	ground_force_2_py	ground_force_2_pz	ground_moment_2_mx	ground_moment_2_my	ground_moment_2_mz	ground_force_3_vx	ground_force_3_vy	ground_force_3_vz	ground_force_3_px	ground_force_3_py	ground_force_3_pz	ground_moment_3_mx	ground_moment_3_my	ground_moment_3_mz	ground_force_4_vx	ground_force_4_vy	ground_force_4_vz	ground_force_4_px	ground_force_4_py	ground_force_4_pz	ground_moment_4_mx	ground_moment_4_my	ground_moment_4_mz
      0.00000000	      0.00000000	     -0.00000000	      0.00000000	      0.00000000	      0.00000000	      0.00000000	      0.00000000	      0.00000000	      0.00000000	    -12.52853489	     26.97038841	   -328.55661011	   -258.98523585	  -1071.24798110	      0.00000000	      0.00000000	      0.00000000	   3020.47543147	      9.47964097	    -21.70196616	   -445.96612549	   -329.35469384	   -796.98375058	      0.00000000	      0.00000000	     -0.00000000	  -2327.39820639	      0.00000000	     -0.00000000	      0.00000000	      0.00000000	      0.00000000	      0.00000000	      0.00000000	      0.00000000	      0.00000000
      0.01000000	      0.00000000	     -0.00000000	      0.00000000	      0.00000000	      0.00000000	      0.00000000	      0.00000000	      0.00000000	      0.00000000	    -12.56436062	     26.89244080	   -328.55618286	   -258.29693514	  -1069.64531811	      0.00000000	      0.00000000	      0.00000000	   2867.22722546	      9.09883976	    -21.79039653	   -443.77172852	   -329.00651938	   -797.43249224	      0.00000000	      0.00000000	     -0.00000000	  -2495.55895183	      0.00000000	     -0.00000000	      0.00000000	      0.00000000	      0.00000000	      0.00000000	      0.00000000	      0.00000000	      0.00000000
      0.02000000	      0.00000000	     -0.00000000	      0.00000000	      0.00000000	      0.00000000	      0.00000000	      0.00000000	      0.00000000	      0.00000000	    -12.42510223	     27.41719818	   -330.12490845	   -258.32640067	  -1070.94518454	      0.00000000	      0.00000000	      0.00000000	   2971.90787304	      8.37534904	    -21.85389973	   -442.76950073	   -329.08655267	   -796.32946402	      0.00000000	      0.00000000	     -0.00000000	  -2383.51656187	      0.00000000	     -0.00000000	      0.00000000	      0.00000000	      0.00000000	      0.00000000	      0.00000000	      0.00000000	      0.00000000
      0.03000000	      0.00000000	     -0.00000000	      0.00000000	      0.00000000	      0.00000000	      0.00000000	      0.00000000	      0.00000000	      0.00000000	    -12.80654144	     27.64546394	   -330.06579590	   -257.80226702	  -1070.25403427	      0.00000000	      0.00000000	      0.00000000	   2799.98260877	      8.70758155	    -21.46217041	   -440.47644043	   -328.91254429	   -796.53889204	      0.00000000	      0.00000000	     -0.00000000	  -2348.75389594	      0.00000000	     -0.00000000	      0.00000000	      0.00000000	      0.00000000	      0.00000000	      0.00000000	      0.00000000	      0.00000000
      0.04000000	      0.00000000	     -0.00000000	      0.00000000	      0.00000000	      0.00000000	      0.00000000	      0.00000000	      0.00000000	      0.00000000	    -12.85544395	     27.82412529	   -331.24667358	   -258.27535635	  -1071.44893803	      0.00000000	      0.00000000	      0.00000000	   2919.34068810	      9.04849819	    -21.37384875	   -439.28912354	   -329.06446134	   -795.59325539	      0.00000000	      0.00000000	     -0.00000000	  -2382.76710139	      0.00000000	     -0.00000000	      0.00000000	      0.00000000	      0.00000000	      0.00000000	      0.00000000	      0.00000000	      0.00000000
      0.05000000	      0.00000000	     -0.00000000	      0.00000000	      0.00000000	      0.00000000	      0.00000000	      0.00000000	      0.00000000	      0.00000000	    -13.02473450	     27.79291725	   -331.76095581	   -259.44736998	  -1071.44564882	      0.00000000	      0.00000000	      0.00000000	   2812.89714605	      9.15186035	    -20.57895359	   -436.94348145	   -329.83739543	   -796.84877518	      0.00000000	      0.00000000	     -0.00000000	  -2359.82257464	      0.00000000	     -0.00000000	      0.00000000	      0.00000000	      0.00000000	      0.00000000	      0.00000000	      0.00000000	      0.00000000
      0.06000000	      0.00000000	     -0.00000000	      0.00000000	      0.00000000	      0.00000000	      0.00000000	      0.00000000	      0.00000000	      0.00000000	    -12.66789246	     28.65132523	   -333.14511108	   -258.21861350	  -1071.92191388	      0.00000000	      0.00000000	      0.00000000	   2798.49078761	      9.32418167	    -20.56944547	   -437.25601196	   -330.32643396	   -796.02897319	      0.00000000	      0.00000000	     -0.00000000	  -2209.09162683	      0.00000000	     -0.00000000	      0.00000000	      0.00000000	      0.00000000	      0.00000000	      0.00000000	      0.00000000	      0.00000000
      0.07000000	      0.00000000	     -0.00000000	      0.00000000	      0.00000000	      0.00000000	      0.00000000	      0.00000000	      0.00000000	      0.00000000	    -12.23727989	     29.52637291	   -334.14303589	   -259.46774627	  -1071.90474929	      0.00000000	      0.00000000	      0.00000000	   2903.34040111	     10.19267194	    -19.97601217	   -436.50006104	   -330.81625324	   -796.36821921	      0.00000000	      0.00000000	     -0.00000000	  -2347.63812095	      0.00000000	     -0.00000000	      0.00000000	      0.00000000	      0.00000000	      0.00000000	      0.00000000	      0.00000000	      0.00000000
      0.08000000	      0.00000000	     -0.00000000	      0.00000000	      0.00000000	      0.00000000	      0.00000000	      0.00000000	      0.00000000	      0.00000000	    -11.94702435	     29.78645325	   -332.46615601	   -258.92585915	  -1070.80465660	      0.00000000	      0.00000000	      0.00000000	   2891.54692324	     10.44355983	    -19.75985428	   -436.78869629	   -331.24677880	   -795.97606941	      0.00000000	      0.00000000	     -0.00000000	  -2300.08253016	      0.00000000	     -0.00000000	      0.00000000	      0.00000000	      0.00000000	      0.00000000	      0.00000000	      0.00000000	      0.00000000
      0.09000000	      0.00000000	     -0.00000000	      0.00000000	      0.00000000	      0.00000000	      0.00000000	      0.00000000	      0.00000000	      0.00000000	    -11.72780991	     30.09537125	   -336.32226562	   -259.96875381	  -1072.38810781	      0.00000000	     -0.00000000	      0.00000000	   2964.59782686	     10.50817893	    -19.27822396	   -436.24899292	   -331.27788722	   -796.28650583	      0.00000000	      0.00000000	     -0.00000000	  -2216.70549258	      0.00000000	     -0.00000000	      0.00000000	      0.00000000	      0.00000000	      0.00000000	      0.00000000	      0.00000000	      0.00000000
      0.10000000	      0.00000000	     -0.00000000	      0.00000000	      0.00000000	      0.00000000	      0.00000000	      0.00000000	      0.00000000	      0.00000000	    -11.18769360	     30.53653908	   -337.54553223	   -260.79562472	  -1072.19974266	      0.00000000	      0.00000000	     -0.00000000	   2990.46197432	     10.41846297	    -19.34245010	   -436.18515015	   -331.47525229	   -796.99212307	      0.00000000	      0.00000000	     -0.00000000	  -2212.33396061	      0.00000000	     -0.00000000	      0.00000000	      0.00000000	      0.00000000	      0.00000000	      0.00000000	      0.00000000	      0.00000000
      0.11000000	      0.00000000	     -0.00000000	      0.00000000	      0.00000000	      0.00000000	      0.00000000	      0.00000000	      0.00000000	      0.00000000	    -11.04412651	     30.70830536	   -339.33474731	   -260.49926574	  -1071.91689843	      0.00000000	      0.00000000	      0.00000000	   2986.33329797	     10.02431703	    -19.03687183	   -434.69378662	   -331.52526862	   -797.27135877	      0.00000000	      0.00000000	     -0.00000000	  -2180.50821381	      0.00000000	     -0.00000000	      0.00000000	      0.00000000	      0.00000000	      0.00000000	      0.00000000	      0.00000000	      0.00000000
      0.12000000	      0.00000000	     -0.00000000	      0.00000000	      0.00000000	      0.00000000	      0.00000000	      0.00000000	      0.00000000	      0.00000000	    -10.79447174	     31.15368843	   -338.67883301	   -260.82080782	  -1071.59210721	      0.00000000	      0.00000000	      0.00000000	   2977.11158616	      9.80583596	    -19.09464350	   -436.22604370	   -331.14872325	   -796.53786665	      0.00000000	      0.00000000	     -0.00000000	  -2197.17119587	      0.00000000	     -0.00000000	      0.00000000	      0.00000000	      0.00000000	      0.00000000	      0.00000000	      0.00000000	      0.00000000
      0.13000000	      0.00000000	     -0.00000000	      0.00000000	      0.00000000	      0.00000000	      0.00000000	      0.00000000	      0.00000000	      0.00000000	    -10.48463058	     30.99390030	   -340.00027466	   -261.51747134	  -1073.74847765	      0.00000000	      0.00000000	      0.00000000	   3129.37848624	      9.29091478	    -19.01890264	   -437.23117065	   -331.76159592	   -797.45242387	      0.00000000	      0.00000000	     -0.00000000	  -2204.79504707	      0.00000000	     -0.00000000	      0.00000000	      0.00000000	      0.00000000	      0.00000000	      0.00000000	      0.00000000	      0.00000000
      0.14000000	      0.00000000	     -0.00000000	      0.00000000	      0.00000000	      0.00000000	      0.00000000	      0.00000000	      0.00000000	      0.00000000	    -10.68188286	     30.81576157	   -338.05169678	   -261.37173194	  -1073.76857185	      0.00000000	      0.00000000	      0.00000000	   3104.96557240	      9.49205231	    -19.14231574	   -440.09448242	   -332.18084642	   -796.76111859	      0.00000000	      0.00000000	     -0.00000000	  -2317.62792966	      0.00000000	     -0.00000000	      0.00000000	      0.00000000	      0.00000000	      0.00000000	      0.00000000	      0.00000000	      0.00000000
